<svg id="visual" viewBox="0 0 900 600" width="900" height="600" xmlns="http://www.w3.org/2000/svg" xmlns:xlink="http://www.w3.org/1999/xlink" version="1.1"><rect x="0" y="0" width="900" height="600" fill="#CCCCCC"></rect><defs><linearGradient id="grad1_0" x1="33.3%" y1="0%" x2="100%" y2="100%"><stop offset="20%" stop-color="#cccccc" stop-opacity="1"></stop><stop offset="80%" stop-color="#cccccc" stop-opacity="1"></stop></linearGradient></defs><defs><linearGradient id="grad2_0" x1="0%" y1="0%" x2="66.7%" y2="100%"><stop offset="20%" stop-color="#cccccc" stop-opacity="1"></stop><stop offset="80%" stop-color="#cccccc" stop-opacity="1"></stop></linearGradient></defs><g transform="translate(900, 0)"><path d="M0 540.8C-27.6 536.3 -55.3 531.8 -83.7 528.4C-112.1 525 -141.4 522.8 -165.6 509.8C-189.9 496.7 -209.1 472.9 -234.3 459.8C-259.4 446.7 -290.3 444.3 -312.1 429.6C-333.9 414.8 -346.5 387.6 -369.1 369.1C-391.7 350.6 -424.4 340.8 -437.5 317.9C-450.7 295 -444.4 259 -457.1 232.9C-469.8 206.8 -501.5 190.4 -511.7 166.3C-521.8 142.1 -510.4 110 -511.6 81C-512.9 52 -526.9 26 -540.8 0L0 0Z" fill="#001122"></path></g><g transform="translate(0, 600)"><path d="M0 -540.8C26.1 -526.2 52.3 -511.5 80.7 -509.6C109.2 -507.8 140 -518.8 167.1 -514.4C194.3 -510 217.8 -490.2 241.5 -474C265.3 -457.8 289.3 -445.1 312.1 -429.6C334.9 -414.1 356.6 -395.7 374.8 -374.8C393 -353.8 407.7 -330.3 423.1 -307.4C438.5 -284.6 454.7 -262.4 468.7 -238.8C482.7 -215.2 494.5 -190 505 -164.1C515.5 -138.2 524.6 -111.5 530.4 -84C536.1 -56.5 538.5 -28.3 540.8 0L0 0Z" fill="#001122"></path></g></svg>